<svg width="20" height="20" viewBox="0 0 20 20" fill="none" xmlns="http://www.w3.org/2000/svg">
<mask id="path-1-inside-1_108_93" fill="white">
<path d="M1.30212 19.9999C1.1682 20.0023 1.03573 19.9703 0.915995 19.9065C0.796272 19.8429 0.692854 19.7493 0.614598 19.6338C0.536343 19.5185 0.485563 19.3846 0.466604 19.2439C0.447646 19.1031 0.461074 18.9595 0.505738 18.8255L2.27547 12.6598C1.89029 11.5997 1.69522 10.4725 1.70031 9.33627C1.69855 8.08635 1.93169 6.84865 2.38608 5.69561C2.83181 4.59223 3.46978 3.58814 4.26642 2.73611C5.06704 1.8824 6.01785 1.20405 7.06481 0.739616C8.14757 0.251546 9.31183 0 10.4882 0C11.6645 0 12.8287 0.251546 13.9115 0.739616C15.4977 1.46105 16.8507 2.65922 17.8039 4.18662C18.757 5.71403 19.2687 7.50402 19.276 9.33627C19.269 11.8109 18.343 14.1826 16.6988 15.9364C15.8963 16.7822 14.9506 17.4596 13.9115 17.9329C11.82 18.8629 9.47221 18.905 7.35239 18.0504L1.54546 19.9294C1.46779 19.9646 1.3859 19.9884 1.30212 19.9999ZM10.4826 1.79658C9.08166 1.80302 7.71321 2.24455 6.54572 3.06675C5.37826 3.88896 4.46291 5.0559 3.91248 6.42374C3.18118 8.30409 3.18118 10.4154 3.91248 12.2958C3.97838 12.4893 3.97838 12.7012 3.91248 12.8947L2.55199 17.792L7.14224 16.3122C7.3245 16.2422 7.52407 16.2422 7.70635 16.3122C8.58281 16.6986 9.52254 16.8974 10.4716 16.8974C11.4206 16.8974 12.3603 16.6986 13.2368 16.3122C14.1004 15.9262 14.8837 15.3631 15.5421 14.655C16.2003 13.947 16.7206 13.108 17.073 12.1862C17.4255 11.2644 17.6031 10.2778 17.5958 9.28284C17.5885 8.288 17.3965 7.30443 17.0306 6.3885C16.4814 5.02731 15.5684 3.86689 14.4047 3.05076C13.2409 2.23465 11.8773 1.7986 10.4826 1.79658Z"/>
</mask>
<path d="M1.30212 19.9999C1.1682 20.0023 1.03573 19.9703 0.915995 19.9065C0.796272 19.8429 0.692854 19.7493 0.614598 19.6338C0.536343 19.5185 0.485563 19.3846 0.466604 19.2439C0.447646 19.1031 0.461074 18.9595 0.505738 18.8255L2.27547 12.6598C1.89029 11.5997 1.69522 10.4725 1.70031 9.33627C1.69855 8.08635 1.93169 6.84865 2.38608 5.69561C2.83181 4.59223 3.46978 3.58814 4.26642 2.73611C5.06704 1.8824 6.01785 1.20405 7.06481 0.739616C8.14757 0.251546 9.31183 0 10.4882 0C11.6645 0 12.8287 0.251546 13.9115 0.739616C15.4977 1.46105 16.8507 2.65922 17.8039 4.18662C18.757 5.71403 19.2687 7.50402 19.276 9.33627C19.269 11.8109 18.343 14.1826 16.6988 15.9364C15.8963 16.7822 14.9506 17.4596 13.9115 17.9329C11.82 18.8629 9.47221 18.905 7.35239 18.0504L1.54546 19.9294C1.46779 19.9646 1.3859 19.9884 1.30212 19.9999ZM10.4826 1.79658C9.08166 1.80302 7.71321 2.24455 6.54572 3.06675C5.37826 3.88896 4.46291 5.0559 3.91248 6.42374C3.18118 8.30409 3.18118 10.4154 3.91248 12.2958C3.97838 12.4893 3.97838 12.7012 3.91248 12.8947L2.55199 17.792L7.14224 16.3122C7.3245 16.2422 7.52407 16.2422 7.70635 16.3122C8.58281 16.6986 9.52254 16.8974 10.4716 16.8974C11.4206 16.8974 12.3603 16.6986 13.2368 16.3122C14.1004 15.9262 14.8837 15.3631 15.5421 14.655C16.2003 13.947 16.7206 13.108 17.073 12.1862C17.4255 11.2644 17.6031 10.2778 17.5958 9.28284C17.5885 8.288 17.3965 7.30443 17.0306 6.3885C16.4814 5.02731 15.5684 3.86689 14.4047 3.05076C13.2409 2.23465 11.8773 1.7986 10.4826 1.79658Z" fill="#7C7C7C"/>
<path d="M1.30212 19.9999L1.48625 29.9982L2.07732 29.9873L2.66298 29.9068L1.30212 19.9999ZM0.915995 19.9065L5.61684 11.0803L5.61043 11.0769L0.915995 19.9065ZM0.614598 19.6338L8.89207 14.0228L8.88942 14.0189L0.614598 19.6338ZM0.466604 19.2439L-9.44398 20.5782L-9.44383 20.5793L0.466604 19.2439ZM0.505738 18.8255L9.99263 21.9876L10.0594 21.7873L10.1176 21.5844L0.505738 18.8255ZM2.27547 12.6598L11.8874 15.4188L12.7833 12.2972L11.6743 9.24492L2.27547 12.6598ZM1.70031 9.33627L11.7002 9.38105L11.7003 9.35163L11.7003 9.3222L1.70031 9.33627ZM2.38608 5.69561L-6.88594 1.95L-6.90192 1.98955L-6.91756 2.02923L2.38608 5.69561ZM4.26642 2.73611L-3.02783 -4.1045L-3.03295 -4.09904L-3.03807 -4.09357L4.26642 2.73611ZM7.06481 0.739616L11.1197 9.8806L11.147 9.86849L11.1743 9.85621L7.06481 0.739616ZM13.9115 0.739616L18.0515 -8.36314L18.0363 -8.37008L18.021 -8.37696L13.9115 0.739616ZM17.8039 4.18662L26.2877 -1.1073L26.2874 -1.10774L17.8039 4.18662ZM19.276 9.33627L29.2759 9.36443L29.276 9.33043L29.2759 9.29643L19.276 9.33627ZM16.6988 15.9364L23.9533 22.8192L23.9739 22.7975L23.9943 22.7757L16.6988 15.9364ZM13.9115 17.9329L17.9745 27.0703L18.0155 27.0521L18.0563 27.0335L13.9115 17.9329ZM7.35239 18.0504L11.0915 8.77571L7.72608 7.41893L4.2737 8.53607L7.35239 18.0504ZM1.54546 19.9294L-1.53324 10.4151L-2.07092 10.5891L-2.58557 10.8226L1.54546 19.9294ZM10.4826 1.79658L10.4971 -8.20341L10.4669 -8.20345L10.4367 -8.20331L10.4826 1.79658ZM6.54572 3.06675L0.787825 -5.10924L0.78766 -5.10912L6.54572 3.06675ZM3.91248 6.42374L-5.36457 2.69057L-5.38634 2.74469L-5.40749 2.79906L3.91248 6.42374ZM3.91248 12.2958L13.3788 9.07253L13.3099 8.87024L13.2324 8.67107L3.91248 12.2958ZM3.91248 12.8947L-5.55382 9.67147L-5.64605 9.94234L-5.72264 10.218L3.91248 12.8947ZM2.55199 17.792L-7.08312 15.1153L-12.0535 33.0071L5.62019 27.3097L2.55199 17.792ZM7.14224 16.3122L10.2104 25.8299L10.4714 25.7458L10.7273 25.6475L7.14224 16.3122ZM7.70635 16.3122L11.7402 7.16192L11.5179 7.06392L11.291 6.97682L7.70635 16.3122ZM13.2368 16.3122L17.2706 25.4626L17.2941 25.4522L17.3175 25.4417L13.2368 16.3122ZM15.5421 14.655L22.8655 21.4644L22.8661 21.4637L15.5421 14.655ZM17.073 12.1862L7.73268 8.6143L7.73231 8.61528L17.073 12.1862ZM17.5958 9.28284L27.5956 9.20947V9.20946L17.5958 9.28284ZM17.0306 6.3885L26.3171 2.67879L26.3106 2.66259L26.3041 2.6464L17.0306 6.3885ZM14.4047 3.05076L20.1465 -5.13649L20.1461 -5.13678L14.4047 3.05076ZM1.11798 10.0016C2.71037 9.97224 4.25652 10.3558 5.61684 11.0803L-3.78485 28.7327C-2.18507 29.5848 -0.37396 30.0324 1.48625 29.9982L1.11798 10.0016ZM5.61043 11.0769C6.97305 11.8013 8.08416 12.831 8.89207 14.0228L-7.66288 25.2448C-6.69846 26.6675 -5.38051 27.8844 -3.77844 28.7361L5.61043 11.0769ZM8.88942 14.0189C9.69824 15.2109 10.1936 16.5475 10.377 17.9085L-9.44383 20.5793C-9.22252 22.2217 -8.62556 23.8261 -7.66022 25.2487L8.88942 14.0189ZM10.3772 17.9096C10.5604 19.2706 10.4333 20.6655 9.99263 21.9876L-8.98116 15.6634C-9.51115 17.2534 -9.66514 18.9355 -9.44398 20.5782L10.3772 17.9096ZM10.1176 21.5844L11.8874 15.4188L-7.33641 9.90092L-9.10615 16.0665L10.1176 21.5844ZM11.6743 9.24492C11.695 9.30184 11.7004 9.3465 11.7002 9.38105L-8.29959 9.29149C-8.30992 11.5985 -7.91442 13.8976 -7.12338 16.0748L11.6743 9.24492ZM11.7003 9.3222C11.7003 9.32317 11.7003 9.32572 11.6993 9.3307C11.6984 9.33568 11.696 9.34611 11.6897 9.36198L-6.91756 2.02923C-7.83783 4.36448 -8.3032 6.85171 -8.29968 9.35034L11.7003 9.3222ZM11.6581 9.44121C11.6527 9.45465 11.6313 9.50123 11.5709 9.56578L-3.03807 -4.09357C-4.69172 -2.32495 -5.98906 -0.270189 -6.88594 1.95L11.6581 9.44121ZM11.5607 9.57671C11.4667 9.67687 11.3226 9.79059 11.1197 9.8806L3.00989 -8.40137C0.713057 -7.3825 -1.33267 -5.91208 -3.02783 -4.1045L11.5607 9.57671ZM11.1743 9.85621C10.9782 9.94461 10.7429 10 10.4882 10V-10C7.8808 -10 5.31696 -9.44152 2.95535 -8.37698L11.1743 9.85621ZM10.4882 10C10.2334 10 9.99812 9.94461 9.80198 9.8562L18.021 -8.37696C15.6594 -9.44152 13.0955 -10 10.4882 -10V10ZM9.77145 9.84237C9.50471 9.72105 9.37216 9.56392 9.32041 9.48099L26.2874 -1.10774C24.3292 -4.24549 21.4907 -6.79895 18.0515 -8.36314L9.77145 9.84237ZM9.32013 9.48055C9.29377 9.43831 9.28352 9.40881 9.27975 9.39563C9.27599 9.38247 9.27607 9.37663 9.27606 9.37611L29.2759 9.29643C29.2613 5.64079 28.2428 2.02586 26.2877 -1.1073L9.32013 9.48055ZM9.27602 9.30811C9.27603 9.30773 9.27605 9.30502 9.27707 9.29965C9.27806 9.29446 9.28042 9.28443 9.28627 9.26943C9.29719 9.24146 9.32789 9.17761 9.40334 9.09712L23.9943 22.7757C27.425 19.1162 29.2621 14.2873 29.2759 9.36443L9.27602 9.30811ZM9.44431 9.05368C9.50716 8.98744 9.61137 8.90307 9.76665 8.83235L18.0563 27.0335C20.2899 26.0162 22.2855 24.577 23.9533 22.8192L9.44431 9.05368ZM9.84842 8.79554C10.2276 8.62693 10.6951 8.61592 11.0915 8.77571L3.61328 27.325C8.24928 29.194 13.4124 29.0989 17.9745 27.0703L9.84842 8.79554ZM4.2737 8.53607L-1.53324 10.4151L4.62415 29.4437L10.4311 27.5646L4.2737 8.53607ZM-2.58557 10.8226C-1.79189 10.4625 -0.941396 10.2141 -0.0587448 10.0929L2.66298 29.9068C3.7132 29.7626 4.72747 29.4667 5.67648 29.0363L-2.58557 10.8226ZM10.4367 -8.20331C6.94812 -8.18729 3.59335 -7.08501 0.787825 -5.10924L12.3036 11.2427C11.8331 11.5741 11.2152 11.7933 10.5286 11.7965L10.4367 -8.20331ZM0.78766 -5.10912C-2.01007 -3.13875 -4.11889 -0.404977 -5.36457 2.69057L13.1895 10.1569C13.0447 10.5168 12.7666 10.9167 12.3038 11.2426L0.78766 -5.10912ZM-5.40749 2.79906C-7.0455 7.0108 -7.04551 11.7087 -5.40748 15.9205L13.2324 8.67107C13.4079 9.12215 13.4079 9.59738 13.2324 10.0484L-5.40749 2.79906ZM-5.55382 15.519C-6.19953 13.6226 -6.19953 11.5678 -5.55382 9.67147L13.3788 16.118C14.1563 13.8345 14.1563 11.356 13.3788 9.07253L-5.55382 15.519ZM-5.72264 10.218L-7.08312 15.1153L12.1871 20.4687L13.5476 15.5714L-5.72264 10.218ZM5.62019 27.3097L10.2104 25.8299L4.07404 6.79456L-0.516205 8.27431L5.62019 27.3097ZM10.7273 25.6475C8.60155 26.4639 6.24689 26.4637 4.12165 25.6477L11.291 6.97682C8.80125 6.02077 6.04745 6.02061 3.55716 6.97697L10.7273 25.6475ZM3.67252 25.4626C5.80831 26.4041 8.1208 26.8974 10.4716 26.8974V6.89744C10.9243 6.89744 11.3573 6.99314 11.7402 7.16192L3.67252 25.4626ZM10.4716 26.8974C12.8223 26.8974 15.1348 26.4041 17.2706 25.4626L9.20294 7.16192C9.5858 6.99315 10.0188 6.89744 10.4716 6.89744V26.8974ZM17.3175 25.4417C19.4344 24.4955 21.3138 23.1333 22.8655 21.4644L8.21861 7.84571C8.45371 7.59286 8.76644 7.35689 9.15605 7.18274L17.3175 25.4417ZM22.8661 21.4637C24.4162 19.7963 25.6127 17.8524 26.4137 15.7571L7.73231 8.61528C7.82853 8.36358 7.98436 8.09768 8.21804 7.84632L22.8661 21.4637ZM26.4133 15.7581C27.2146 13.6628 27.6119 11.4392 27.5956 9.20947L7.59612 9.35621C7.59436 9.11644 7.63643 8.866 7.73268 8.6143L26.4133 15.7581ZM27.5956 9.20946C27.5792 6.98028 27.1495 4.76256 26.3171 2.67879L7.74419 10.0982C7.64356 9.84631 7.59787 9.59571 7.59612 9.35622L27.5956 9.20946ZM26.3041 2.6464C25.0567 -0.444718 22.9459 -3.17325 20.1465 -5.13649L8.66283 11.238C8.19089 10.907 7.90599 10.4993 7.7572 10.1306L26.3041 2.6464ZM20.1461 -5.13678C17.3386 -7.1055 13.9831 -8.19836 10.4971 -8.20341L10.4681 11.7966C9.77148 11.7956 9.14309 11.5748 8.66325 11.2383L20.1461 -5.13678Z" fill="#34AD64" mask="url(#path-1-inside-1_108_93)"/>
</svg>
