<svg width="39" height="36" viewBox="0 0 39 36" fill="none" xmlns="http://www.w3.org/2000/svg">
<path fill-rule="evenodd" clip-rule="evenodd" d="M15.5595 2.71504C17.0909 -0.0161167 20.9109 -0.0161183 22.4423 2.71504L37.4631 29.504C39.0432 32.3222 36.9942 35.6667 34.0217 35.6667H3.98007C1.00758 35.6667 -1.0414 32.3222 0.538697 29.504L15.5595 2.71504ZM15.9268 10.7591C15.8764 9.80379 16.5988 9.00001 17.5078 9.00001H20.4938C21.4028 9.00001 22.1252 9.80379 22.0748 10.7591L21.459 22.4258C21.4123 23.309 20.7183 24 19.878 24H18.1236C17.2833 24 16.5893 23.309 16.5426 22.4258L15.9268 10.7591ZM22.1676 29C22.1676 30.841 20.7498 32.3333 19.0008 32.3333C17.2518 32.3333 15.834 30.841 15.834 29C15.834 27.159 17.2518 25.6667 19.0008 25.6667C20.7498 25.6667 22.1676 27.159 22.1676 29Z" fill="#FC5A5A"/>
</svg>
