<svg viewBox="0 0 180 36" fill="none" xmlns="http://www.w3.org/2000/svg">
<g clip-path="url(#icon-clip0)">
<path d="M55.5644 16.4382C55.0312 17.423 54.1945 18.2156 53.0561 18.8197C51.9177 19.4238 50.4855 19.7229 48.7536 19.7229H45.2237V27.8017H40.9951V6.7627H48.7556C50.3863 6.7627 51.7757 7.04436 52.9238 7.60573C54.0699 8.16711 54.932 8.94216 55.506 9.927C56.0801 10.9118 56.3681 12.0268 56.3681 13.2739C56.3642 14.3986 56.0976 15.4534 55.5644 16.4382ZM51.1705 15.5194C51.7328 14.9872 52.015 14.2374 52.015 13.2739C52.015 11.2246 50.8688 10.1989 48.5726 10.1989H45.2237V16.3178H48.5765C49.7421 16.3178 50.6081 16.0516 51.1705 15.5194Z" fill="#000E33"/>
<path d="M58.2072 14.8664C58.8825 13.561 59.797 12.5548 60.9549 11.8516C62.1127 11.1485 63.4048 10.7969 64.8351 10.7969C66.0825 10.7969 67.1761 11.0494 68.1121 11.5506C69.0481 12.0517 69.7973 12.6869 70.3616 13.4484V11.0688H74.6193V27.7664H70.3616V25.3247C69.8187 26.1075 69.0695 26.7563 68.1121 27.2691C67.1547 27.7819 66.0533 28.0383 64.8059 28.0383C63.3951 28.0383 62.1147 27.677 60.9568 26.9544C59.799 26.2318 58.8825 25.2101 58.2072 23.895C57.532 22.578 57.1953 21.0668 57.1953 19.3593C57.1934 17.6694 57.532 16.1737 58.2072 14.8664ZM69.7564 16.7817C69.3536 16.0474 68.8087 15.486 68.1257 15.0936C67.4407 14.7013 66.7071 14.5051 65.9209 14.5051C65.1367 14.5051 64.4109 14.6974 63.7473 15.0781C63.0838 15.4588 62.5447 16.0183 62.1322 16.7506C61.7196 17.4848 61.5134 18.3531 61.5134 19.3574C61.5134 20.3636 61.7196 21.2416 62.1322 21.9953C62.5428 22.749 63.0896 23.3259 63.7629 23.728C64.4381 24.1301 65.1562 24.3301 65.9229 24.3301C66.7071 24.3301 67.4427 24.1339 68.1257 23.7416C68.8087 23.3492 69.3536 22.7859 69.7564 22.0536C70.1592 21.3193 70.3596 20.4413 70.3596 19.4157C70.3596 18.3939 70.1573 17.5159 69.7564 16.7817Z" fill="#000E33"/>
<path d="M100.165 27.2708C98.9882 26.7696 98.0561 26.0451 97.3731 25.101C96.6881 24.157 96.3359 23.042 96.3164 21.7541H100.847C100.907 22.6185 101.214 23.3023 101.769 23.8035C102.324 24.3046 103.082 24.5571 104.05 24.5571C105.036 24.5571 105.811 24.3221 106.375 23.8481C106.939 23.3781 107.22 22.7584 107.22 21.995C107.22 21.3715 107.027 20.8587 106.645 20.4585C106.264 20.0564 105.783 19.7417 105.211 19.5086C104.637 19.2794 103.847 19.0211 102.841 18.7394C101.471 18.3373 100.36 17.9391 99.5039 17.5487C98.6477 17.1563 97.9121 16.5638 97.3011 15.7713C96.6861 14.9768 96.3787 13.9182 96.3787 12.5915C96.3787 11.3463 96.692 10.2605 97.3147 9.33586C97.9393 8.41124 98.815 7.70418 99.9436 7.21079C101.07 6.7174 102.359 6.4707 103.808 6.4707C105.982 6.4707 107.749 6.99906 109.109 8.05382C110.467 9.10859 111.218 10.581 111.359 12.4691H106.708C106.667 11.7465 106.361 11.1482 105.785 10.6762C105.211 10.2061 104.452 9.96717 103.505 9.96717C102.68 9.96717 102.02 10.1789 101.528 10.6004C101.033 11.0219 100.786 11.6358 100.786 12.438C100.786 12.9994 100.973 13.4675 101.345 13.8405C101.718 14.2134 102.18 14.5145 102.734 14.7437C103.289 14.9749 104.067 15.241 105.075 15.544C106.443 15.9461 107.56 16.3482 108.428 16.7484C109.294 17.1505 110.039 17.7546 110.662 18.5568C111.287 19.361 111.598 20.4158 111.598 21.7231C111.598 22.8497 111.306 23.8928 110.722 24.8582C110.138 25.8217 109.282 26.5909 108.154 27.164C107.025 27.737 105.688 28.0245 104.137 28.0245C102.668 28.0245 101.343 27.7719 100.165 27.2708Z" fill="#000E33"/>
<path d="M119.314 14.5013V22.5801C119.314 23.1415 119.45 23.5494 119.721 23.8019C119.993 24.0545 120.45 24.1788 121.094 24.1788H123.056V27.7355H120.398C116.835 27.7355 115.052 26.0067 115.052 22.551V14.5013H113.06V11.036H115.052V6.90625H119.31V11.036H123.054V14.5033L119.314 14.5013Z" fill="#000E33"/>
<path d="M132.264 11.5506C133.139 11.0494 134.14 10.7969 135.268 10.7969V15.2277H134.151C132.822 15.2277 131.822 15.5404 131.147 16.162C130.471 16.7836 130.135 17.8714 130.135 19.4176V27.7372H125.906V11.0397H130.135V13.6329C130.682 12.7471 131.388 12.0556 132.264 11.5506Z" fill="#000E33"/>
<path d="M138.053 8.40354C137.559 7.93346 137.312 7.34489 137.312 6.63977C137.312 5.93659 137.559 5.34996 138.053 4.876C138.547 4.40397 139.164 4.16699 139.909 4.16699C140.655 4.16699 141.273 4.40203 141.766 4.876C142.26 5.34802 142.507 5.93659 142.507 6.63977C142.507 7.34295 142.26 7.92958 141.766 8.40354C141.272 8.87557 140.655 9.11255 139.909 9.11255C139.164 9.11255 138.545 8.87557 138.053 8.40354ZM141.993 11.1016V27.7992H137.765V11.1016H141.993Z" fill="#000E33"/>
<path d="M159.065 12.6811C160.293 13.9379 160.906 15.6919 160.906 17.9413V27.7372H156.677V18.5143C156.677 17.1876 156.345 16.1678 155.681 15.4549C155.018 14.742 154.111 14.3846 152.965 14.3846C151.797 14.3846 150.877 14.742 150.201 15.4549C149.526 16.1678 149.189 17.1876 149.189 18.5143V27.7392H144.961V11.0377H149.189V13.1162C149.752 12.3936 150.474 11.8264 151.349 11.4126C152.225 11.0028 153.186 10.7949 154.233 10.7949C156.228 10.7969 157.839 11.4243 159.065 12.6811Z" fill="#000E33"/>
<path d="M173.508 11.5389C174.454 12.0323 175.2 12.6694 175.742 13.4523V11.0708H180V27.8907C180 29.4389 179.687 30.818 179.064 32.034C178.44 33.25 177.504 34.2135 176.256 34.9283C175.007 35.6432 173.499 35.9986 171.726 35.9986C169.35 35.9986 167.402 35.445 165.882 34.3417C164.363 33.2364 163.5 31.7291 163.3 29.8196H167.497C167.719 30.583 168.196 31.191 168.932 31.6436C169.667 32.0962 170.558 32.3215 171.603 32.3215C172.831 32.3215 173.828 31.9544 174.594 31.2201C175.359 30.4859 175.74 29.3767 175.74 27.8907V25.2975C175.198 26.0803 174.448 26.7349 173.491 27.2555C172.534 27.7781 171.442 28.0383 170.214 28.0383C168.803 28.0383 167.517 27.677 166.349 26.9544C165.182 26.2318 164.261 25.2101 163.586 23.895C162.911 22.578 162.574 21.0668 162.574 19.3593C162.574 17.6713 162.911 16.1737 163.586 14.8683C164.261 13.563 165.176 12.5568 166.336 11.8536C167.494 11.1504 168.786 10.7988 170.216 10.7988C171.465 10.7988 172.563 11.0455 173.508 11.5389ZM175.139 16.7836C174.736 16.0494 174.193 15.488 173.508 15.0956C172.824 14.7032 172.09 14.507 171.304 14.507C170.518 14.507 169.794 14.6993 169.13 15.0801C168.467 15.4608 167.928 16.0202 167.515 16.7525C167.102 17.4868 166.896 18.3551 166.896 19.3593C166.896 20.3655 167.102 21.2435 167.515 21.9972C167.926 22.7509 168.472 23.3278 169.146 23.7299C169.821 24.132 170.539 24.3321 171.306 24.3321C172.09 24.3321 172.825 24.1359 173.51 23.7435C174.195 23.3511 174.738 22.7878 175.141 22.0555C175.544 21.3212 175.744 20.4432 175.744 19.4176C175.742 18.3959 175.542 17.5159 175.139 16.7836Z" fill="#000E33"/>
<path d="M89.1377 20.5714H89.1474V20.4141C89.1455 20.4685 89.1435 20.5209 89.1377 20.5714Z" fill="#000E33"/>
<path d="M93.3837 11.0723V27.8942C93.3837 29.4384 93.0704 30.8215 92.4477 32.0375C91.823 33.2535 90.8871 34.2169 89.6378 34.9298C88.3904 35.6447 86.8803 36.0001 85.1095 36.0001C84.0509 36.0001 83.078 35.8913 82.1887 35.6699C81.0873 35.398 80.1143 34.957 79.2717 34.3471C79.2698 34.3451 79.2678 34.3451 79.2659 34.3432C77.7461 33.2379 76.886 31.7306 76.6836 29.8211H80.881C80.9258 29.9765 80.9802 30.1241 81.0483 30.2659C81.3052 30.8254 81.7275 31.2857 82.3152 31.6451C82.9593 32.0414 83.724 32.2647 84.6094 32.3133C84.732 32.3191 84.8605 32.323 84.9889 32.323C86.2168 32.323 87.2131 31.9559 87.9779 31.2236C88.7426 30.4893 89.126 29.3782 89.126 27.8942V25.3009C88.6784 25.9478 88.0888 26.5033 87.359 26.9734C87.2053 27.0744 87.0419 27.1677 86.8765 27.259C86.8181 27.292 86.7578 27.3231 86.6974 27.3541H86.6955C85.9833 27.7116 85.1991 27.9311 84.3409 28.0088C84.2669 28.0107 84.1891 28.0126 84.1132 28.0126C82.1186 28.0126 80.5093 27.3833 79.2814 26.1304C78.3143 25.1358 77.7266 23.8363 77.5242 22.226C77.4678 21.7967 77.4386 21.3422 77.4386 20.8682V11.0723H81.6652V20.2971C81.6652 21.6219 81.998 22.6436 82.6635 23.3546C83.1227 23.8499 83.6987 24.1724 84.3915 24.3258C84.697 24.3919 85.0278 24.4268 85.38 24.4268C86.5495 24.4268 87.47 24.0675 88.1433 23.3546C88.7368 22.7291 89.0695 21.8647 89.1376 20.7652H89.1474V11.0723H93.3837Z" fill="#000E33"/>
<path d="M18.8112 28.5641C21.1872 28.2494 23.3861 27.1442 25.0557 25.4289L34.7796 15.4796C34.1608 15.3785 33.5342 15.3319 32.9076 15.3397C31.1991 15.3494 29.5178 15.7709 28.0077 16.5693C27.0561 17.0763 26.1883 17.729 25.4352 18.5001L21.8488 22.1675C21.8274 22.1908 21.804 22.2141 21.7807 22.2394C20.654 23.3932 19.1167 24.0576 17.5016 24.0867C15.8864 24.1158 14.3258 23.5098 13.1582 22.3967L16.9041 26.0447C17.6631 26.7848 18.3072 27.6337 18.8112 28.5641Z" fill="url(#icon-paint0_linear)"/>
<path d="M9.96381 25.6658L19.9309 35.3724C20.3104 33.0414 19.9173 30.6483 18.8101 28.5601C18.3061 27.6297 17.6639 26.7808 16.9031 26.0426L13.1571 22.3947C12.5694 21.8352 12.0985 21.167 11.7716 20.425C11.4447 19.683 11.2695 18.8846 11.254 18.0746C11.2384 17.2646 11.3844 16.4604 11.684 15.7067C11.9837 14.953 12.4293 14.2673 12.9956 13.6865L9.345 17.4258C8.59192 18.1989 7.72403 18.8496 6.77246 19.3566C7.08381 21.7614 8.21052 23.9875 9.96381 25.6658Z" fill="url(#icon-paint1_linear)"/>
<path d="M0 20.4517C0.618811 20.5527 1.24541 20.5993 1.872 20.5896C3.58054 20.578 5.26184 20.1564 6.77189 19.36C7.72346 18.853 8.5933 18.2023 9.34443 17.4292L13.0009 13.6899C13.5632 13.113 14.2326 12.6546 14.9741 12.336C15.7135 12.0194 16.5094 11.8504 17.315 11.8387C18.1206 11.829 18.9204 11.9767 19.6696 12.2758C20.4188 12.5749 21.0999 13.0178 21.6759 13.5792L17.9786 9.97978C17.1905 9.21444 16.5269 8.33062 16.0151 7.35938C13.6236 7.66629 11.4071 8.7735 9.72584 10.5004L0 20.4517Z" fill="url(#icon-paint2_linear)"/>
<path d="M21.8489 22.1712L25.4353 18.5038C26.1884 17.7307 27.0562 17.0799 28.0078 16.5729C27.7023 14.2167 26.6145 12.0314 24.9196 10.3648L14.9525 0.65625C14.8513 1.27396 14.8046 1.89944 14.8124 2.52492C14.824 4.21099 15.2366 5.86793 16.0169 7.36364C16.5287 8.33488 17.1922 9.21871 17.9804 9.98405L21.6757 13.5835C22.8277 14.7062 23.4932 16.235 23.5263 17.8433C23.5574 19.4478 22.9561 21.0037 21.8489 22.1712Z" fill="url(#icon-paint3_linear)"/>
</g>
<defs>
<linearGradient id="icon-paint0_linear" x1="36.5075" y1="12.2483" x2="19.8608" y2="23.5753" gradientUnits="userSpaceOnUse">
<stop stop-color="#C906F9"/>
<stop offset="0.4483" stop-color="#A803FC"/>
<stop offset="0.8625" stop-color="#8700FF"/>
</linearGradient>
<linearGradient id="icon-paint1_linear" x1="15.4512" y1="19.4608" x2="11.4125" y2="34.7161" gradientUnits="userSpaceOnUse">
<stop stop-color="#0044FF"/>
<stop offset="0.4896" stop-color="#0087FF"/>
<stop offset="1" stop-color="#00CAFF"/>
</linearGradient>
<linearGradient id="icon-paint2_linear" x1="2.59799" y1="12.2646" x2="10.8896" y2="14.7887" gradientUnits="userSpaceOnUse">
<stop stop-color="#B0FF33"/>
<stop offset="0.4948" stop-color="#55DF20"/>
<stop offset="1" stop-color="#0AC222"/>
</linearGradient>
<linearGradient id="icon-paint3_linear" x1="12.6465" y1="12.7781" x2="26.6715" y2="9.44113" gradientUnits="userSpaceOnUse">
<stop stop-color="#FF8100"/>
<stop offset="0.0001" stop-color="#FF8100"/>
<stop offset="0.5" stop-color="#FF5D00"/>
<stop offset="1" stop-color="#FF3600"/>
</linearGradient>
<clipPath id="icon-clip0">
<rect width="180" height="36" fill="white"/>
</clipPath>
</defs>
</svg>
