<svg version="1.1" id="Layer_1" xmlns="http://www.w3.org/2000/svg" xmlns:xlink="http://www.w3.org/1999/xlink" x="0px" y="0px"
	 width="100%" viewBox="0 0 200 200" enable-background="new 0 0 200 200" xml:space="preserve">
<path fill="#F7F7F7" opacity="1.000000" stroke="none" 
	d="
M90.000000,201.000000 
	C60.018448,201.000000 30.536894,201.000000 1.027670,201.000000 
	C1.027670,134.393478 1.027670,67.786942 1.027670,1.090201 
	C67.564735,1.090201 134.129639,1.090201 200.847260,1.090201 
	C200.847260,67.666397 200.847260,134.333160 200.847260,201.000000 
	C164.120560,201.000000 127.310280,201.000000 90.000000,201.000000 
M72.792534,80.660561 
	C66.657951,90.394119 60.523373,100.127686 54.289097,110.019424 
	C61.156715,114.355827 67.309143,118.240646 73.276924,122.827202 
	C67.035255,132.963531 60.793587,143.099869 54.402271,153.479233 
	C61.275887,157.789902 67.679695,161.805939 74.167564,165.874695 
	C83.187790,151.254059 91.941238,137.065826 101.017876,122.353760 
	C110.199333,137.359390 118.861961,151.517075 127.676987,165.923828 
	C134.329880,161.703995 140.757233,157.627213 147.664688,153.245911 
	C144.395447,147.989029 141.228043,142.958527 138.124893,137.888687 
	C134.917358,132.648254 131.772278,127.369583 129.225418,121.706665 
	C135.295715,117.749512 141.366028,113.792358 147.724548,109.647316 
	C140.263977,97.946999 133.116684,86.737999 125.984985,74.732849 
	C126.192245,73.761528 126.387520,72.787468 126.608528,71.819283 
	C130.373199,55.327385 120.113556,39.679470 103.370308,36.381001 
	C87.872337,33.327850 72.891411,44.238491 69.758331,60.328064 
	C68.354431,67.537682 70.640366,73.742729 72.792534,80.660561 
z"/>
<path fill="#33BC6C" opacity="1.000000" stroke="none" 
	d="
M128.599869,122.107643 
	C131.772278,127.369583 134.917358,132.648254 138.124893,137.888687 
	C141.228043,142.958527 144.395447,147.989029 147.664688,153.245911 
	C140.757233,157.627213 134.329880,161.703995 127.676987,165.923828 
	C118.861961,151.517075 110.199333,137.359390 101.017876,122.353760 
	C91.941238,137.065826 83.187790,151.254059 74.167564,165.874695 
	C67.679695,161.805939 61.275887,157.789902 54.402271,153.479233 
	C60.793587,143.099869 67.035255,132.963531 73.671783,122.378799 
	C79.805023,112.529480 85.543411,103.128571 91.728271,93.716492 
	C97.793755,93.217613 103.412766,92.729912 109.207443,92.514450 
	C112.166100,97.316162 114.839432,101.917793 117.760376,106.356483 
	C121.263245,111.679451 124.977280,116.863457 128.599869,122.107643 
z"/>
<path fill="#FFBD5A" opacity="1.000000" stroke="none" 
	d="
M109.031784,92.242203 
	C103.412766,92.729912 97.793755,93.217613 91.461731,93.473480 
	C83.268707,91.018158 77.671196,86.278709 73.162888,80.083534 
	C70.640366,73.742729 68.354431,67.537682 69.758331,60.328064 
	C72.891411,44.238491 87.872337,33.327850 103.370308,36.381001 
	C120.113556,39.679470 130.373199,55.327385 126.608528,71.819283 
	C126.387520,72.787468 126.192245,73.761528 125.710510,75.384384 
	C122.084473,83.580391 116.538033,88.903175 109.031784,92.242203 
z"/>
<path fill="#747574" opacity="1.000000" stroke="none" 
	d="
M109.207443,92.514450 
	C116.538033,88.903175 122.084473,83.580391 125.702721,75.782463 
	C133.116684,86.737999 140.263977,97.946999 147.724548,109.647316 
	C141.366028,113.792358 135.295715,117.749512 128.912643,121.907150 
	C124.977280,116.863457 121.263245,111.679451 117.760376,106.356483 
	C114.839432,101.917793 112.166100,97.316162 109.207443,92.514450 
z"/>
<path fill="#747574" opacity="1.000000" stroke="none" 
	d="
M72.977707,80.372047 
	C77.671196,86.278709 83.268707,91.018158 91.015259,93.484650 
	C85.543411,103.128571 79.805023,112.529480 73.764099,122.027924 
	C67.309143,118.240646 61.156715,114.355827 54.289097,110.019424 
	C60.523373,100.127686 66.657951,90.394119 72.977707,80.372047 
z"/>
</svg>