<?xml version="1.0" encoding="utf-8"?>
<!-- Generator: Adobe Illustrator 22.0.1, SVG Export Plug-In . SVG Version: 6.00 Build 0)  -->
<svg version="1.1" id="Layer_1" xmlns="http://www.w3.org/2000/svg" xmlns:xlink="http://www.w3.org/1999/xlink" x="0px" y="0px"
	 viewBox="0 0 500 500" style="enable-background:new 0 0 500 500;" xml:space="preserve">
<style type="text/css">
	.st0{fill:#31BB6B;}
	.st1{fill:#FEBC59;}
	.st2{fill:#737373;}
</style>
<g>
	<path class="st0" d="M329.1,310c18.5,29.6,37,59.3,55.7,88.9c2.1,3.3,1.7,4.6-1.6,6.7c-17.5,10.9-35,22-52.3,33.2
		c-2.9,1.9-4.2,2.2-6.3-1.3c-24.8-41-49.8-81.9-74.7-122.9c-2.8-4.7-2.9-4.6-5.7,0c-25.2,41.1-50.5,82.3-75.6,123.5
		c-1.7,2.8-2.7,2.7-5.2,1.1c-17.7-11.3-35.4-22.5-53.2-33.6c-1.9-1.2-3.6-1.8-1.8-4.7c19-29.9,37.8-60,56.7-90
		c13.7-22.6,27.6-44.9,41.4-67.4c3.1-5.1,6.3-10.2,9.4-15.3c1.5-2.4,3-4.8,6.2-5.3c5-0.3,9.9,0.7,14.9,0.8c11,0.4,21.4-1.8,31.9-4.6
		c2.9-0.4,4.6,1.3,6,3.6c16.6,27.4,33.6,54.6,50,82.1C325.9,306.8,327.2,308.6,329.1,310z"/>
	<path class="st1" d="M270.3,219.8c-16.1,5.8-32.6,6.8-49.4,3.8c-6.3,0.9-11.7-2.2-17-4.5c-15.3-6.7-28.1-16.7-37.6-30.7
		c-1.2-1.8-2.5-3.6-2.4-5.9c-7.7-14.1-12.3-29-11.9-45.2c0.8-31,14.1-55.5,40.1-72.3c51.5-33.4,120.1-4.4,132.6,55.9
		c3,14.3,2.1,28.8-2.1,42.9c-0.4,1.3-0.6,2.6-0.9,3.9c-2.7,11-8.7,20.1-15.8,28.5c-7.9,9.2-17.4,16.4-28.5,21.5
		C275,218.8,272.8,219.7,270.3,219.8z"/>
	<path class="st2" d="M270.3,219.8c23.7-9.8,40.9-26.3,50.2-50.5c0.2-0.6,0.8-1.1,1.2-1.6c20.8,33.3,41.6,66.7,62.6,99.9
		c2.8,4.4,1.9,5.9-2.2,8.4c-17.8,11-35.9,21.7-52.9,34c-2.4,1.3-3.2-0.5-4.1-2.1c-17.2-28.4-34.4-56.8-51.6-85.1
		C272.6,221.5,272,220.1,270.3,219.8z"/>
	<path class="st2" d="M163.9,182.6c13.2,21.7,32.6,35,57,41c-6.5,7.6-11,16.6-16.2,25.1c-12.3,20-25.1,39.6-36.6,60
		c-0.7,1.2-1.4,2.3-3,2.1c-3.3-3.6-7.6-5.9-11.6-8.5c-14.3-9.1-28.8-18-43.2-26.9c-2.1-1.3-3.7-2.1-1.8-5.2
		c18.3-28.9,36.5-58,54.7-87C163.3,183,163.6,182.8,163.9,182.6z"/>
</g>
</svg>
