<svg width="208" height="80" viewBox="0 0 208 80" fill="none" xmlns="http://www.w3.org/2000/svg">
<path fill-rule="evenodd" clip-rule="evenodd" d="M74.477 60.1983C77.9493 54.2702 79.9397 47.3678 79.9397 40C79.9397 34.8344 78.9614 29.8976 77.1798 25.365H81.0703C81.5642 25.365 81.991 25.5448 82.3502 25.9043C82.7096 26.2639 82.8891 26.6908 82.8891 27.1852V45.3192C82.8891 46.5326 83.1809 47.454 83.7648 48.0831C84.3487 48.7122 85.1794 49.0269 86.2572 49.0269C87.3349 49.0269 88.1659 48.7122 88.7495 48.0831C89.3334 47.454 89.6253 46.5326 89.6253 45.3192V27.1852C89.6253 26.6908 89.805 26.2639 90.1641 25.9043C90.5236 25.5448 90.9501 25.365 91.444 25.365H104.243C104.737 25.365 105.163 25.5448 105.523 25.9043C105.882 26.2639 106.062 26.6908 106.062 27.1852V58.5994C106.062 59.0937 105.882 59.5208 105.523 59.8803C105.163 60.2397 104.737 60.4196 104.243 60.4196H92.4544C91.9605 60.4196 91.534 60.2397 91.1746 59.8803C90.8154 59.5208 90.6357 59.0937 90.6357 58.5994V56.3748C89.5579 57.9477 88.0536 59.1387 86.1224 59.9477C84.1916 60.7116 81.9686 61.0937 79.4536 61.0937C77.6829 61.0937 76.024 60.7952 74.477 60.1983ZM74.477 60.1983C67.5384 72.0448 54.6824 80 39.9698 80C17.8951 80 0 62.0915 0 40C0 17.9086 17.8951 0 39.9698 0C56.883 0 71.3425 10.5128 77.1798 25.365H68.2042C67.7103 25.365 67.2838 25.5448 66.9243 25.9043C66.5652 26.2639 66.3854 26.6908 66.3854 27.1852V45.791C66.3854 49.2067 66.9693 52.0604 68.1368 54.3524C69.3494 56.6445 70.9437 58.3522 72.9195 59.4758C73.4254 59.7519 73.9448 59.9927 74.477 60.1983ZM45.4907 64.3295C45.9399 64.6442 46.5235 64.8014 47.2421 64.8014H60.445C60.8042 64.8014 61.1186 64.6666 61.3881 64.3969C61.6575 64.1723 61.7923 63.88 61.7923 63.5206V63.3183C61.7923 63.1835 61.7249 62.9813 61.5902 62.7116L56.2686 55.094C59.2325 52.038 60.8492 47.9706 61.1186 42.8923C61.2084 40.4655 61.2534 38.5105 61.2534 37.0274C61.2534 35.5443 61.2084 33.5443 61.1186 31.0277C60.9839 27.1627 59.9511 23.837 58.02 21.0506C56.1339 18.2642 53.5291 16.152 50.206 14.7138C46.8829 13.2757 43.0207 12.5566 38.6198 12.5566C34.2189 12.5566 30.3567 13.2757 27.0336 14.7138C23.7104 16.152 21.0833 18.2642 19.1523 21.0506C17.2661 23.837 16.2557 27.1627 16.121 31.0277C16.0761 32.2862 16.0536 34.2859 16.0536 37.0274C16.0536 39.7239 16.0761 41.6789 16.121 42.8923C16.3904 48.8246 18.5236 53.3413 22.5204 56.4422C26.5172 59.5432 31.8836 61.0937 38.6198 61.0937C40.0121 61.0937 41.3143 61.0263 42.5268 60.8915L44.4129 63.2509C44.7274 63.7004 45.0865 64.0599 45.4907 64.3295ZM42.19 46.6C41.3366 47.4987 40.1468 47.9482 38.6198 47.9482C37.0929 47.9482 35.8803 47.4987 34.9823 46.6C34.1289 45.7013 33.68 44.3303 33.635 42.4878C33.59 41.1846 33.5677 39.2744 33.5677 36.7578C33.5677 34.2411 33.59 32.3759 33.635 31.1625C33.68 29.32 34.1516 27.9492 35.0496 27.0504C35.9477 26.1515 37.1379 25.7021 38.6198 25.7021C40.1018 25.7021 41.2919 26.1515 42.19 27.0504C43.088 27.9492 43.5596 29.32 43.6046 31.1625C43.6943 33.5894 43.7393 35.4545 43.7393 36.7578C43.7393 37.9712 43.6943 39.8811 43.6046 42.4878C43.5596 44.3303 43.088 45.7013 42.19 46.6ZM112.988 21.118C113.347 21.4776 113.774 21.6573 114.268 21.6573H125.652C126.146 21.6573 126.573 21.4776 126.932 21.118C127.291 20.7585 127.471 20.3316 127.471 19.8372V11.6803C127.471 11.1859 127.291 10.759 126.932 10.3994C126.573 10.0399 126.146 9.86014 125.652 9.86014H114.268C113.774 9.86014 113.347 10.0399 112.988 10.3994C112.629 10.759 112.449 11.1859 112.449 11.6803V19.8372C112.449 20.3316 112.629 20.7585 112.988 21.118ZM112.652 59.8803C113.011 60.2397 113.437 60.4196 113.931 60.4196H125.989C126.483 60.4196 126.91 60.2397 127.269 59.8803C127.628 59.5208 127.808 59.0937 127.808 58.5994V27.1852C127.808 26.6908 127.628 26.2639 127.269 25.9043C126.91 25.5448 126.483 25.365 125.989 25.365H113.931C113.437 25.365 113.011 25.5448 112.652 25.9043C112.292 26.2639 112.113 26.6908 112.113 27.1852V58.5994C112.113 59.0937 112.292 59.5208 112.652 59.8803ZM143.183 57.1164C146.147 59.3186 150.278 60.4196 155.577 60.4196H163.189C163.683 60.4196 164.11 60.2397 164.469 59.8803C164.828 59.5208 165.008 59.0937 165.008 58.5994V49.7684C165.008 49.2741 164.828 48.847 164.469 48.4876C164.11 48.1281 163.683 47.9482 163.189 47.9482H157.059C155.128 47.9482 154.163 46.8246 154.163 44.5776V37.1622H162.65C163.144 37.1622 163.571 36.9824 163.93 36.6229C164.289 36.2635 164.469 35.8364 164.469 35.3421V27.1852C164.469 26.6908 164.289 26.2639 163.93 25.9043C163.571 25.5448 163.144 25.365 162.65 25.365H154.163V14.3768C154.163 13.8824 153.983 13.4555 153.624 13.0959C153.265 12.7364 152.838 12.5566 152.344 12.5566H140.555C140.062 12.5566 139.635 12.7364 139.276 13.0959C138.916 13.4555 138.737 13.8824 138.737 14.3768V25.365H133.415C132.921 25.365 132.494 25.5448 132.135 25.9043C131.776 26.2639 131.596 26.6908 131.596 27.1852V35.3421C131.596 35.8364 131.776 36.2635 132.135 36.6229C132.494 36.9824 132.921 37.1622 133.415 37.1622H138.737V45.9259C138.737 51.139 140.219 54.8694 143.183 57.1164ZM168.795 46.0607C169.469 56.0828 175.981 61.0937 188.33 61.0937C200.68 61.0937 207.192 56.0828 207.865 46.0607C207.955 44.7124 208 43.6562 208 42.8923C208 42.1284 207.955 41.0722 207.865 39.7239C207.551 34.8252 205.687 31.0951 202.274 28.5334C198.861 25.9717 194.213 24.6909 188.33 24.6909C182.447 24.6909 177.799 25.9717 174.386 28.5334C170.973 31.0951 169.11 34.8252 168.795 39.7239C168.75 40.398 168.728 41.4543 168.728 42.8923C168.728 44.3303 168.75 45.3866 168.795 46.0607ZM190.688 49.3639C190.329 49.993 189.543 50.3077 188.33 50.3077C187.118 50.3077 186.332 49.993 185.973 49.3639C185.613 48.6898 185.389 47.4764 185.299 45.7236L185.232 42.8923L185.299 40.061C185.434 38.3533 185.681 37.1622 186.04 36.4881C186.399 35.814 187.163 35.4769 188.33 35.4769C189.498 35.4769 190.261 35.814 190.621 36.4881C190.98 37.1622 191.227 38.3533 191.362 40.061C191.406 40.5105 191.429 41.4543 191.429 42.8923C191.429 44.3303 191.406 45.2741 191.362 45.7236C191.272 47.4764 191.047 48.6898 190.688 49.3639Z" fill="#7E1946"/>
</svg>
