<svg width="109" height="108" viewBox="0 0 109 108" fill="none" xmlns="http://www.w3.org/2000/svg">
<path d="M53.9997 108C28.6361 108 1.27246 92.0908 1.27246 57.1817C1.27246 22.2726 28.6361 6.36353 53.9997 6.36353C68.0906 6.36353 81.0906 10.9999 90.727 19.4544C101.182 28.7272 106.727 41.8181 106.727 57.1817C106.727 72.5453 101.182 85.5453 90.727 94.8181C81.0906 103.273 67.9997 108 53.9997 108Z" fill="url(#paint0_radial_514_154)"/>
<path d="M97.5361 26.9729C102.382 34.7911 104.909 44.1002 104.909 54.4547C104.909 69.8184 99.3634 82.8184 88.9089 92.0911C79.2725 100.546 66.1816 105.273 52.1816 105.273C35.7634 105.273 18.5452 98.5911 8.38159 84.4184C18.1634 100.473 36.5634 108 53.9998 108C67.9998 108 81.0907 103.273 90.727 94.8184C101.182 85.5456 106.727 72.5456 106.727 57.182C106.727 45.6002 103.572 35.3093 97.5361 26.9729Z" fill="#EB8F00"/>
<path d="M54.3636 0C24.3636 0 0 6.15454 0 13.7455C0 21.3364 13.8 29.3182 54.3636 29.3182C92.6909 29.3182 108.682 21.3455 108.682 13.7455C108.682 6.14545 84.3636 0 54.3636 0ZM54.3636 19.4909C31.1636 19.4909 12.3455 17.6727 12.3455 13.2C12.3455 8.72727 31.1636 4.10909 54.3636 4.10909C77.5636 4.10909 96.3818 8.76364 96.3818 13.2455C96.3818 17.7273 77.5273 19.4909 54.3636 19.4909Z" fill="#4FC3F7"/>
<path d="M53.4547 83.2819C45.2093 83.3455 37.3365 79.8819 31.8184 73.7546C31.4002 73.2728 31.3002 72.591 31.5638 72.0092C31.8274 71.4183 32.4093 71.0364 33.0547 71.0273C33.3456 71.0273 33.6365 71.1092 33.8911 71.2546C38.2729 73.7728 45.6002 76.9001 53.4547 76.9001H53.582C61.4274 76.9001 68.7638 73.7728 73.1365 71.2546C73.3911 71.1092 73.682 71.0273 73.9729 71.0273C74.6184 71.0364 75.2002 71.4183 75.4638 72.0092C75.7365 72.591 75.6365 73.2728 75.2093 73.7546C69.6911 79.8819 61.8002 83.3546 53.5547 83.2819" fill="#422B0D"/>
<path d="M40.7272 51.7186L40.5908 51.5367L40.1999 51.0367L39.7181 50.5186C39.5181 50.2913 39.2817 50.0731 39.0545 49.8367C38.8272 49.6004 38.5454 49.3731 38.2908 49.1822C38.0545 49.0004 37.7999 48.8276 37.5272 48.6913C37.3454 48.5913 37.1454 48.5095 36.9363 48.464C36.8726 48.4549 36.809 48.4549 36.7454 48.464C36.7454 48.464 36.6908 48.464 36.6636 48.464H36.5908H36.8363H36.3363C36.2908 48.464 36.1999 48.464 36.3363 48.464H36.409H36.309C36.0999 48.5095 35.8999 48.5822 35.709 48.6913C35.4454 48.8367 35.1817 49.0004 34.9454 49.1822C34.6817 49.3822 34.4272 49.6004 34.1908 49.8367C33.709 50.3004 33.2817 50.7458 33.009 51.1004L32.5363 51.6458L32.3272 51.8913C31.0181 53.3549 28.809 53.5913 27.2181 52.4458C26.1999 51.7367 25.6817 50.5095 25.8817 49.2822C25.8817 49.2822 25.9454 48.9186 26.1181 48.2731C26.3908 47.3549 26.7726 46.464 27.2545 45.6276C28.0272 44.264 29.0726 43.0731 30.3272 42.1276C31.1545 41.4913 32.0726 40.9822 33.0545 40.6276C33.3272 40.5186 33.609 40.4367 33.8908 40.364C34.1908 40.2731 34.4908 40.2095 34.7999 40.1549L35.3545 40.0731L35.8181 40.0186H36.3181H37.0363H37.4999C37.809 40.0186 38.109 40.1004 38.409 40.1458C38.9908 40.2458 39.5726 40.4004 40.1272 40.6095C41.109 40.964 42.0272 41.4731 42.8545 42.1095C44.109 43.0549 45.1545 44.2458 45.9272 45.6095C46.209 46.0822 46.4545 46.5822 46.6545 47.0913C46.8272 47.5004 46.9726 47.9095 47.0908 48.3367C47.1545 48.5549 47.209 48.7731 47.2363 48.9913V49.2186C47.509 51.0731 46.2181 52.8004 44.3636 53.0731C44.3181 53.0822 44.2726 53.0822 44.2272 53.0913C42.8999 53.2822 41.5726 52.7549 40.7272 51.7186Z" fill="#422B0D"/>
<path d="M76.5998 51.7181L76.4544 51.5362L76.0634 51.0362L75.5816 50.5181C75.3816 50.2908 75.1453 50.0726 74.918 49.8362C74.6907 49.5999 74.4089 49.3726 74.1543 49.1817C73.918 48.9999 73.6634 48.8272 73.3907 48.6908C73.2089 48.5908 73.0089 48.509 72.7998 48.4635C72.7362 48.4544 72.6725 48.4544 72.6089 48.4635C72.6089 48.4635 72.5544 48.4635 72.5271 48.4635H72.4544H72.6998H72.1998C72.1544 48.4635 72.0634 48.4635 72.1998 48.4635H72.2725H72.1725C71.9634 48.509 71.7634 48.5817 71.5725 48.6908C71.3089 48.8272 71.0543 48.9999 70.818 49.1817C70.5453 49.3817 70.2907 49.5999 70.0544 49.8362C69.5725 50.2999 69.1453 50.7453 68.8725 51.0999L68.3998 51.6453L68.1998 51.8908C66.8816 53.3544 64.6816 53.5908 63.0816 52.4453C62.0634 51.7362 61.5453 50.509 61.7453 49.2817C61.7453 49.2817 61.8089 48.9181 61.9907 48.2726C62.2634 47.3453 62.6362 46.4544 63.1271 45.6272C63.8998 44.2635 64.9362 43.0726 66.1907 42.1272C67.018 41.4908 67.9362 40.9817 68.918 40.6272C69.1907 40.5181 69.4725 40.4362 69.7544 40.3635C70.0544 40.2726 70.3543 40.209 70.6634 40.1544L71.2271 40.0726L71.6816 40.0181H72.1816H72.8998H73.3634C73.6725 40.0181 73.9725 40.0999 74.2725 40.1453C74.8634 40.2453 75.4362 40.3999 75.9907 40.609C76.9725 40.9635 77.8907 41.4726 78.718 42.109C79.9725 43.0544 81.018 44.2453 81.7907 45.609C82.0725 46.0817 82.318 46.5817 82.518 47.0908C82.6907 47.4908 82.8362 47.8999 82.9543 48.3181C83.018 48.5362 83.0725 48.7544 83.0998 48.9726V49.1999C83.3907 51.0544 82.118 52.7908 80.2634 53.0817C80.2362 53.0817 80.2089 53.0908 80.1816 53.0908C78.8271 53.3181 77.4543 52.7908 76.5998 51.7181Z" fill="#422B0D"/>
<defs>
<radialGradient id="paint0_radial_514_154" cx="0" cy="0" r="1" gradientUnits="userSpaceOnUse" gradientTransform="translate(53.9997 57.1816) scale(51.7815 51.7815)">
<stop offset="0.5" stop-color="#FDE030"/>
<stop offset="0.92" stop-color="#F7C02B"/>
<stop offset="1" stop-color="#F4A223"/>
</radialGradient>
</defs>
</svg>
