<svg width="113" height="108" viewBox="0 0 113 108" fill="none" xmlns="http://www.w3.org/2000/svg">
<path d="M56.0286 108C29.0769 108 0 91.0948 0 54C0 16.9052 29.0769 0 56.0286 0C71.0018 0 84.8157 4.92665 95.0555 13.9106C106.165 23.7639 112.057 37.6744 112.057 54C112.057 70.3256 106.165 84.1395 95.0555 93.9928C84.8157 102.977 70.9052 108 56.0286 108Z" fill="url(#paint0_radial_514_145)"/>
<path d="M102.291 21.8997C107.44 30.2074 110.125 40.0993 110.125 51.1022C110.125 67.4277 104.233 81.2417 93.1234 91.095C82.8837 100.079 68.9732 105.102 54.0966 105.102C36.6504 105.102 18.3542 98.002 7.5542 82.9419C17.9485 100.002 37.5005 108 56.0286 108C70.9052 108 84.8157 102.977 95.0554 93.993C106.165 84.1397 112.057 70.3258 112.057 54.0002C112.057 41.6932 108.705 30.758 102.291 21.8997Z" fill="#D84213"/>
<path d="M75.6772 92.8722C75.3487 92.7466 75.0493 92.5437 74.8174 92.2732C65.4181 82.5069 49.875 82.2074 40.1086 91.6067C39.8865 91.8289 39.6546 92.0511 39.4421 92.2732C39.2103 92.5437 38.9108 92.7466 38.5823 92.8722C37.8578 93.1427 37.0367 92.9881 36.4571 92.4761C35.8872 91.9738 35.694 91.172 35.9838 90.4668C38.8625 83.0768 47.4213 77.2808 57.1297 77.2808C66.8382 77.2808 75.397 83.0768 78.2757 90.4571C78.5655 91.1623 78.3723 91.9641 77.8024 92.4665C77.2228 92.9784 76.4017 93.133 75.6772 92.8722Z" fill="#422B0D"/>
<path d="M50.7541 59.719C48.5903 56.9949 39.674 51.7591 36.4572 50.2328C35.2593 49.6822 34.0132 49.2378 32.738 48.9093C32.5062 48.8417 32.255 48.8127 32.0135 48.8127C30.7287 48.8417 29.6275 49.7594 29.3667 51.0249C29.0672 52.3387 29.7434 53.6911 30.9799 54.2321C32.4965 54.9759 35.1434 56.3863 37.8869 57.9416C35.5974 59.3036 34.1967 61.7766 34.1967 64.4428V65.8532C34.1967 69.8525 37.4425 73.0983 41.4418 73.0983C45.4411 73.0983 48.6869 69.8525 48.6869 65.8532V64.4428C48.6869 64.3848 48.6869 64.3365 48.6869 64.2786C49.7205 64.211 50.6479 63.5927 51.1019 62.6653C51.5752 61.6993 51.44 60.5498 50.7541 59.719Z" fill="#422B0D"/>
<path d="M84.9312 51.0244C84.6607 49.7493 83.5401 48.8412 82.236 48.8315C81.9945 48.8315 81.7434 48.8605 81.5115 48.9281C80.2364 49.2469 78.9902 49.6913 77.7924 50.2323C74.5756 51.7392 65.6593 56.9943 63.4954 59.6992C62.8096 60.5396 62.6936 61.6988 63.1766 62.6648C63.6403 63.6018 64.558 64.2104 65.6013 64.2781V64.4423V65.8527C65.6013 69.8519 68.8471 73.0977 72.8464 73.0977C76.8457 73.0977 80.0915 69.8519 80.0915 65.8527V64.4423C80.0915 61.7857 78.6908 59.3224 76.411 57.9603C79.1545 56.4051 81.8013 54.9947 83.318 54.2509C84.5641 53.7099 85.25 52.3478 84.9312 51.0244Z" fill="#422B0D"/>
<path d="M41.0749 59.3615C39.7031 58.7046 38.0513 59.2843 37.3847 60.656C36.8727 61.7283 37.1046 63.0131 37.9643 63.8438C39.3361 64.5007 40.9879 63.9211 41.6545 62.5494C42.1665 61.4771 41.9346 60.1923 41.0749 59.3615Z" fill="#896024"/>
<path d="M72.4799 59.3615C71.1082 58.7046 69.4563 59.2843 68.7897 60.656C68.2778 61.7283 68.5096 63.0131 69.3693 63.8438C70.7411 64.5007 72.393 63.9211 73.0595 62.5494C73.5715 61.4771 73.3396 60.1923 72.4799 59.3615Z" fill="#896024"/>
<defs>
<radialGradient id="paint0_radial_514_145" cx="0" cy="0" r="1" gradientUnits="userSpaceOnUse" gradientTransform="translate(56.0286 53.9999) scale(55.0237 55.0237)">
<stop offset="0.12" stop-color="#FAC742"/>
<stop offset="0.32" stop-color="#FAC440"/>
<stop offset="0.48" stop-color="#FBBA3B"/>
<stop offset="0.62" stop-color="#FBA931"/>
<stop offset="0.76" stop-color="#FC9224"/>
<stop offset="0.88" stop-color="#FE7413"/>
<stop offset="1" stop-color="#FF5100"/>
</radialGradient>
</defs>
</svg>
