<svg width="113" height="108" viewBox="0 0 113 108" fill="none" xmlns="http://www.w3.org/2000/svg">
<path d="M56.5286 108C29.5769 108 0.5 91.0948 0.5 54C0.5 16.9052 29.5769 0 56.5286 0C71.5018 0 85.3157 4.92665 95.5555 13.9106C106.665 23.7639 112.557 37.6744 112.557 54C112.557 70.3256 106.665 84.1395 95.5555 93.9928C85.3157 102.977 71.4052 108 56.5286 108Z" fill="url(#paint0_radial_514_163)"/>
<path d="M37.5948 32.7864C33.5472 32.7864 29.8667 36.2061 29.8667 41.8862C29.8667 47.5663 33.5472 50.9764 37.5948 50.9764C41.652 50.9764 45.3229 47.5567 45.3229 41.8862C45.3229 36.2157 41.6907 32.7864 37.5948 32.7864Z" fill="#422B0D"/>
<path d="M37.2568 36.583C35.885 35.9261 34.2331 36.5057 33.5666 37.8774C33.0546 38.9497 33.2864 40.2345 34.1462 41.0653C35.5179 41.7221 37.1698 41.1425 37.8364 39.7708C38.3483 38.6985 38.1165 37.4137 37.2568 36.583Z" fill="#896024"/>
<path d="M74.6898 32.7864C70.6422 32.7864 66.9617 36.2061 66.9617 41.8862C66.9617 47.5663 70.6422 50.9764 74.6898 50.9764C78.7373 50.9764 82.4178 47.5567 82.4178 41.8862C82.4178 36.2157 78.7373 32.7864 74.6898 32.7864Z" fill="#422B0D"/>
<path d="M74.3031 36.583C72.9314 35.9261 71.2795 36.5057 70.613 37.8774C70.101 38.9497 70.3328 40.2345 71.1926 41.0653C72.5643 41.7221 74.2162 41.1425 74.8827 39.7708C75.3947 38.6985 75.1629 37.4137 74.3031 36.583Z" fill="#896024"/>
<path d="M55.949 81.734C47.1872 81.8016 38.8216 78.1211 32.9579 71.6102C32.5135 71.0982 32.4073 70.3737 32.6874 69.7555C32.9676 69.1275 33.5858 68.7218 34.2717 68.7122C34.5808 68.7122 34.8899 68.7991 35.1604 68.9537C39.8166 71.6295 47.6026 74.9526 55.949 74.9526H56.0842C64.4209 74.9526 72.2166 71.6295 76.8631 68.9537C77.1336 68.7991 77.4427 68.7122 77.7518 68.7122C78.4377 68.7218 79.0559 69.1275 79.3361 69.7555C79.6259 70.3737 79.5196 71.0982 79.0656 71.6102C73.2019 78.1211 64.8169 81.8113 56.0552 81.734" fill="#422B0D"/>
<path d="M102.791 21.8997C107.94 30.2074 110.625 40.0993 110.625 51.1022C110.625 67.4277 104.733 81.2417 93.6234 91.095C83.3837 100.079 69.4732 105.102 54.5966 105.102C37.1504 105.102 18.8542 98.002 8.0542 82.9419C18.4485 100.002 38.0005 108 56.5286 108C71.4052 108 85.3157 102.977 95.5554 93.993C106.665 84.1397 112.557 70.3258 112.557 54.0002C112.557 41.6932 109.205 30.758 102.791 21.8997Z" fill="#EB8F00"/>
<defs>
<radialGradient id="paint0_radial_514_163" cx="0" cy="0" r="1" gradientUnits="userSpaceOnUse" gradientTransform="translate(56.5286 54) scale(55.0237 55.0237)">
<stop offset="0.5" stop-color="#FDE030"/>
<stop offset="0.92" stop-color="#F7C02B"/>
<stop offset="1" stop-color="#F4A223"/>
</radialGradient>
</defs>
</svg>
