<svg width="40" height="40" viewBox="0 0 40 40" fill="none" xmlns="http://www.w3.org/2000/svg">
<path d="M20 0C8.95437 0 0 8.95406 0 20C0 31.0459 8.95437 40 20 40C31.0456 40 40 31.0459 40 20C40 8.95406 31.0457 0 20 0ZM16.2248 29.5933C16.2248 28.2173 17.3405 27.1016 18.7165 27.1016C20.0914 27.1016 21.2071 28.2173 21.2071 29.5933C21.2071 30.9679 20.0914 32.0842 18.7165 32.0842C17.3405 32.0842 16.2248 30.9679 16.2248 29.5933ZM26.8457 17.0978C26.5648 17.8629 26.158 18.5266 25.6977 19.0787C24.7721 20.1841 23.6752 20.8536 22.7725 21.3476C22.1695 21.6737 21.6371 21.9248 21.3062 22.1108C21.0792 22.2361 20.9563 22.3412 20.8955 22.4097C20.8355 22.482 20.8152 22.5117 20.7787 22.6305C20.7573 22.7093 20.7351 22.8345 20.7351 23.0282C20.7351 23.5648 20.7351 24.0057 20.7351 24.0057C20.7351 24.5113 20.3251 24.922 19.8192 24.922H17.612C17.1062 24.922 16.6955 24.5113 16.6955 24.0057C16.6955 24.0057 16.6955 23.5647 16.6955 23.0282C16.6955 22.5252 16.7542 22.0326 16.8834 21.5613C17.0112 21.0919 17.2127 20.6458 17.4699 20.257C17.9855 19.4693 18.6841 18.9444 19.3437 18.5789C19.9219 18.2606 20.4939 17.9965 21.0246 17.6976C21.555 17.4013 22.028 17.0796 22.3763 16.731C22.6098 16.4986 22.7912 16.2584 22.93 15.9873C23.1124 15.6257 23.239 15.2008 23.2419 14.5506C23.2428 14.3582 23.1873 14.1052 23.0363 13.8159C22.8858 13.5279 22.6405 13.2148 22.3125 12.9338C21.6523 12.3676 20.6841 11.9537 19.5739 11.9556C18.3016 11.9602 17.45 12.2584 16.7937 12.6291C16.1405 13.0022 15.932 13.3787 15.932 13.3787C15.5986 13.6691 15.1037 13.6795 14.7582 13.4032L13.0621 12.0441C12.8497 11.8743 12.7245 11.6192 12.7187 11.3467C12.7137 11.0749 12.83 10.8147 13.0359 10.6359C13.0359 10.6359 13.5645 9.82102 14.7899 9.1218C16.0102 8.4193 17.6276 7.9118 19.574 7.91641C21.1533 7.91641 22.6083 8.35094 23.8137 9.0618C25.0195 9.77648 25.9931 10.7605 26.6145 11.9427C27.0271 12.7298 27.2805 13.617 27.2812 14.5505C27.2821 15.472 27.1287 16.3327 26.8457 17.0978Z" fill="#3CC49C"/>
</svg>
