<svg width="116" height="109" fill="none" xmlns="http://www.w3.org/2000/svg">
    <path d="M57.621 108.297c-25.94 0-53.924-16.951-53.924-54.148S31.682 0 57.62 0c14.411 0 27.706 4.94 37.561 13.949 10.692 9.88 16.364 23.83 16.364 40.2 0 16.37-5.672 30.222-16.364 40.103-9.855 9.008-23.243 14.045-37.56 14.045Z" fill="url(#a)"/>
    <path d="M102.146 21.96c4.956 8.33 7.54 18.25 7.54 29.283 0 16.37-5.671 30.222-16.363 40.103-9.855 9.008-23.243 14.046-37.561 14.046-16.791 0-34.4-7.12-44.795-22.222 10.004 17.107 28.822 25.128 46.654 25.128 14.318 0 27.706-5.038 37.561-14.046 10.692-9.88 16.364-23.733 16.364-40.103 0-12.341-3.227-23.306-9.4-32.189Z" fill="#EB8F00"/>
    <path d="M35.159 23.452c-.41-1.027-1.525-1.55-2.53-1.173a24.217 24.217 0 0 0-4.34 1.986c-3.683 2.112-6.835 5.105-9.196 8.718-.65.92-.483 2.209.381 2.906.456.397 1.05.591 1.646.514.446-.068.855-.29 1.171-.63a59.695 59.695 0 0 1 11.892-9.396l.102-.058c.985-.552 1.376-1.821.874-2.867ZM82.808 22.483c.409-1.027 1.525-1.55 2.529-1.172a24.927 24.927 0 0 1 4.332 1.937c3.682 2.112 6.834 5.095 9.205 8.718.641.92.474 2.199-.382 2.906a2.131 2.131 0 0 1-1.645.514 2.018 2.018 0 0 1-1.172-.63 59.694 59.694 0 0 0-11.89-9.396l-.103-.058c-.958-.552-1.348-1.783-.874-2.82ZM93.388 62.595c-1.301-2.45-4.128-3.526-6.638-2.538a99.386 99.386 0 0 1-29.37 4.291 99.386 99.386 0 0 1-29.37-4.29c-2.502-.989-5.328.077-6.63 2.518-1.264 2.431-.353 5.25.716 7.681 5.97 13.659 19.125 21.834 35.21 21.883h.148c16.084 0 29.24-8.224 35.218-21.883 1.06-2.45 1.98-5.23.716-7.662Z" fill="#422B0D"/>
    <path d="M72.265 88.284c-.344-.329-.698-.63-1.051-.968-3.793-3.478-8.702-5.347-13.76-5.24-5.207-.088-10.274 1.714-14.337 5.104-.353.3-.725.591-1.069.969s-.53.649-.753.969a41.965 41.965 0 0 0 16.057 3.119h.148c5.263 0 10.478-.979 15.406-2.906a7.417 7.417 0 0 0-.641-1.047Z" fill="#ED7770"/>
    <path d="M86.75 60.058a99.386 99.386 0 0 1-29.37 4.29 99.386 99.386 0 0 1-29.371-4.29c-2.501-.988-5.328.077-6.63 2.518a5.202 5.202 0 0 0-.427 1.153c.307.165.66.33 1.079.504 11.194 5.84 23.568 8.805 36.083 8.65 12.003.145 23.866-2.577 34.707-7.943.436-.194.8-.378 1.124-.552a5.38 5.38 0 0 0-.557-1.812c-1.302-2.44-4.128-3.516-6.639-2.518Z" fill="#fff"/>
    <path d="M93.425 62.605c-1.32-2.45-4.156-3.535-6.685-2.547a99.37 99.37 0 0 1-29.36 4.29 99.386 99.386 0 0 1-29.37-4.29c-2.502-.989-5.328.077-6.63 2.518-1.264 2.431-.353 5.25.716 7.682a33.962 33.962 0 0 0 1.59 3.206s-1.953-7.536-.26-9.725a3.278 3.278 0 0 1 2.603-1.57c.437 0 .864.078 1.283.213a101.363 101.363 0 0 0 29.9 4.456h.325a101.365 101.365 0 0 0 29.9-4.456 4.146 4.146 0 0 1 1.284-.213c1.06.058 2.036.64 2.612 1.57 1.72 2.189-.26 9.754-.26 9.754.576-1.036 1.153-2.102 1.636-3.206 1.06-2.432 1.98-5.24.716-7.682Z" fill="#EB8F00"/>
    <path d="M92.105 48.52s15.805.456 22.118 12.593c2.641 5.095 2.789 13.562-2.678 16.652-6.61 3.787-12.811-1.589-13.602-7.323-2.129-15.557-5.838-21.921-5.838-21.921Z" fill="#29B6F6"/>
    <path d="M113.089 71.943c-.623 1.182-1.989 1.695-3.189 1.201-1.069-.59-1.357-2.015-1.525-3.264l-.511-3.875c-.214-1.54-1.72-6.529-.139-7.342 1.255-.64 3.663 1.123 4.369 2.14 1.553 2.306 2.288 8.873.995 11.14Z" fill="#81D4FA"/>
    <path d="M107.724 58.711c1.256-.64 3.664 1.124 4.37 2.14 1.553 2.258 2.287 8.826.995 11.092-.623 1.182-1.99 1.695-3.189 1.201-1.069-.59-1.357-2.015-1.525-3.264l-.511-3.875" fill="#81D4FA"/>
    <path d="M23.881 48.52s-15.805.456-22.118 12.593C-.877 66.16-.98 74.587 4.44 77.716c6.61 3.788 12.812-1.588 13.602-7.323 2.13-15.508 5.84-21.873 5.84-21.873Z" fill="#29B6F6"/>
    <path d="M2.897 71.943c.623 1.182 1.99 1.695 3.189 1.201 1.07-.59 1.357-2.015 1.525-3.264l.511-3.875c.214-1.54 1.72-6.529.14-7.342-1.256-.64-3.664 1.123-4.37 2.14-1.553 2.306-2.287 8.873-.995 11.14Z" fill="#81D4FA"/>
    <path d="m43.257 47.34-.14-.214-.195-.261a1.707 1.707 0 0 0-.242-.281l-.567-.601a13.226 13.226 0 0 0-.809-.765 8.323 8.323 0 0 0-2.045-1.347 5.467 5.467 0 0 0-2.278-.503h.158-.53a1.253 1.253 0 0 0-.27 0 4.53 4.53 0 0 0-.502.087 7.708 7.708 0 0 0-1.125.378 8.056 8.056 0 0 0-2.045 1.346c-.502.436-.976.91-1.413 1.424l-.53.62-.28.33c-1.124 1.336-3.067 1.472-4.35.31-.958-.873-1.302-2.277-.874-3.527l.102-.31c.084-.203.158-.513.335-.881A13.546 13.546 0 0 1 27.31 40.2a12.48 12.48 0 0 1 6.509-4.64 12.96 12.96 0 0 1 1.617-.33c.28 0 .688-.086.81-.086h.706c1.05.019 2.101.174 3.124.445.976.281 1.906.688 2.789 1.211a13.044 13.044 0 0 1 3.719 3.43c.688.939 1.274 1.956 1.73 3.04.074.156.139.31.176.475.046.126.074.233.102.32l.084.262c.53 1.714-.372 3.555-2.018 4.107-1.236.416-2.603-.01-3.412-1.066l.01-.029ZM85.401 47.34l-.167-.214-.195-.261a1.717 1.717 0 0 0-.242-.281l-.576-.601c-.251-.271-.521-.523-.8-.765a8.325 8.325 0 0 0-2.045-1.347 5.467 5.467 0 0 0-2.278-.503h.158-.54a1.253 1.253 0 0 0-.269 0c-.167.019-.335.048-.502.087a7.708 7.708 0 0 0-1.125.378 8.927 8.927 0 0 0-2.092 1.385c-.502.445-.967.92-1.404 1.424l-.53.62-.279.329c-1.125 1.337-3.068 1.472-4.35.31-.959-.872-1.303-2.276-.875-3.526l.102-.31c.084-.203.159-.513.326-.881a14.002 14.002 0 0 1 1.701-2.984 12.48 12.48 0 0 1 6.508-4.64c.53-.145 1.07-.252 1.618-.33.28 0 .688-.086.809-.086h.707c1.05.019 2.1.174 3.123.445.967.29 1.897.698 2.771 1.22a12.906 12.906 0 0 1 3.719 3.43c.39.523.734 1.075 1.05 1.647.252.455.475.92.68 1.394.074.155.13.31.176.475 0 .126.074.232.102.32l.084.261c.53 1.715-.372 3.555-2.018 4.107-1.236.417-2.603-.01-3.412-1.065l.065-.039Z" fill="#422B0D"/>
    <defs>
        <radialGradient id="a" cx="0" cy="0" r="1" gradientUnits="userSpaceOnUse" gradientTransform="matrix(52.9574 0 0 55.1752 57.621 54.149)">
            <stop offset=".5" stop-color="#FDE030"/>
            <stop offset=".92" stop-color="#F7C02B"/>
            <stop offset="1" stop-color="#F4A223"/>
        </radialGradient>
    </defs>
</svg>
