<svg width="113" height="108" viewBox="0 0 113 108" fill="none" xmlns="http://www.w3.org/2000/svg">
<path d="M56.5286 108C29.5769 108 0.5 91.0948 0.5 54C0.5 16.9052 29.5769 0 56.5286 0C71.5018 0 85.3157 4.92665 95.5555 13.9106C106.665 23.7639 112.557 37.6744 112.557 54C112.557 70.3256 106.665 84.1395 95.5555 93.9928C85.3157 102.977 71.4052 108 56.5286 108Z" fill="url(#paint0_radial_514_189)"/>
<path d="M102.791 21.8997C107.94 30.2074 110.625 40.0993 110.625 51.1022C110.625 67.4277 104.733 81.2417 93.6234 91.095C83.3837 100.079 69.4732 105.102 54.5966 105.102C37.1504 105.102 18.8542 98.002 8.0542 82.9419C18.4485 100.002 38.0005 108 56.5286 108C71.4052 108 85.3157 102.977 95.5554 93.993C106.665 84.1397 112.557 70.3258 112.557 54.0002C112.557 41.6932 109.205 30.758 102.791 21.8997Z" fill="#EB8F00"/>
<path d="M57.3011 73.7066C53.8428 73.7066 50.4134 73.127 47.158 71.9678C43.149 70.5864 38.7923 72.7213 37.4109 76.7206C36.6284 78.981 36.9472 81.4733 38.2707 83.4633C42.4245 89.839 48.9934 93.3166 57.3011 93.3166C65.6088 93.3166 72.1776 89.839 76.3315 83.4633C78.6789 79.9374 77.7129 75.175 74.1869 72.8275C72.197 71.5041 69.7046 71.1853 67.4442 71.9678C64.1887 73.127 60.7594 73.7066 57.3011 73.7066Z" fill="#422B0D"/>
<path opacity="0.8" d="M28.1281 79.4059C37.4646 79.4059 45.0333 72.2697 45.0333 63.4668C45.0333 54.6638 37.4646 47.5276 28.1281 47.5276C18.7916 47.5276 11.2229 54.6638 11.2229 63.4668C11.2229 72.2697 18.7916 79.4059 28.1281 79.4059Z" fill="url(#paint1_radial_514_189)"/>
<path opacity="0.8" d="M86.475 79.4059C95.8115 79.4059 103.38 72.2697 103.38 63.4668C103.38 54.6638 95.8115 47.5276 86.475 47.5276C77.1385 47.5276 69.5698 54.6638 69.5698 63.4668C69.5698 72.2697 77.1385 79.4059 86.475 79.4059Z" fill="url(#paint2_radial_514_189)"/>
<path d="M99.0234 26.4396C91.0925 24.2081 85.2674 30.6901 85.2674 30.6901C85.2674 30.6901 84.5912 23.3387 77.8098 21.03C69.676 18.2382 61.0882 22.6818 60.5762 34.2063C59.9966 47.3344 77.3655 64.5681 77.3655 64.5681C77.3655 64.5681 98.9268 58.772 105.988 46.4843C111.736 36.4861 105.022 28.1205 99.0234 26.4396Z" fill="#F44336"/>
<path d="M99.0233 26.4396C98.0476 26.1787 97.043 26.0628 96.0383 26.0821C98.8784 27.9852 101.129 30.6417 102.53 33.7523C103.892 37.027 104.249 41.2582 101.661 46.3104C96.048 57.2939 78.7661 64.0947 77.5103 64.568C79.0849 64.1236 99.2358 58.3276 106.027 46.5133C111.736 36.4861 105.022 28.1204 99.0233 26.4396Z" fill="#C62828"/>
<path d="M85.258 31.8782C85.2 30.8736 85.0455 29.8689 84.8136 28.8836C84.2534 26.0435 82.4952 23.5802 79.9836 22.1215C78.2641 21.1169 76.361 20.4793 74.3904 20.2378C74.3904 20.2378 77.2884 21.1169 79.3557 25.1258C80.4086 27.2317 81.0365 29.5308 81.1911 31.8782C81.1814 32.738 81.336 33.5784 81.6451 34.3802C81.9929 35.182 82.843 35.6553 83.7124 35.5201C85.0358 35.182 85.3256 33.5301 85.258 31.8782Z" fill="#C62828"/>
<path d="M66.4785 27.2706C68.2849 25.0294 71.2506 22.8946 74.0906 24.8652C75.5976 25.9182 75.6169 28.9032 73.7719 30.2459C70.6613 32.5257 70.5164 34.023 70.1686 35.2788C69.7436 36.7761 69.4731 38.5633 68.111 39.3167C66.749 40.0702 65.5511 39.3167 64.8363 37.1625C63.6191 33.8008 64.2373 30.0527 66.4785 27.2706Z" fill="#FF847A"/>
<path d="M34.4263 20.837C26.592 23.3776 25.3361 32.0041 25.3361 32.0041C25.3361 32.0041 20.6993 26.208 13.744 28.0821C5.44598 30.2653 0.760831 38.7275 6.68248 48.5905C13.5412 59.8928 37.5369 64.578 37.5369 64.578C37.5369 64.578 52.2685 47.808 51.3411 33.6656C50.578 22.1508 40.3479 18.9146 34.4263 20.837Z" fill="#F44336"/>
<path d="M34.4266 20.8368C33.4703 21.1459 32.5526 21.5903 31.7122 22.1506C35.1318 22.1602 38.4742 23.1263 41.3723 24.9424C44.3283 26.8744 46.9655 30.2361 47.6224 35.8873C49.0424 48.1459 38.4163 63.3799 37.5952 64.4908C38.6674 63.2543 52.2206 47.2572 51.3318 33.6558C50.5783 22.1506 40.3483 18.9144 34.4266 20.8368Z" fill="#C62828"/>
<path d="M26.0026 33.0181C25.4036 32.197 24.7274 31.4435 23.9739 30.7673C21.9453 28.7 19.1342 27.5988 16.2458 27.7533C14.2655 27.8693 12.3238 28.3813 10.5464 29.2796C10.5464 29.2796 13.4444 28.4006 17.3857 30.6031C19.4433 31.7913 21.2305 33.3852 22.6602 35.2786C23.1238 36.0031 23.7228 36.6213 24.428 37.114C25.1621 37.5873 26.1281 37.5004 26.7754 36.9111C27.6351 35.8678 26.9686 34.3415 26.0026 33.0181Z" fill="#C62828"/>
<path d="M7.84176 39.6064C7.8804 38.795 8.0253 37.9932 8.2668 37.2204C8.66287 35.5975 9.81242 34.2547 11.3484 33.6075C12.8264 33.1438 14.8743 33.4723 15.6664 34.9503C16.3716 36.264 15.8596 37.8483 15.4732 39.2973C15.1255 40.9588 14.9323 42.659 14.8936 44.3592C14.9033 45.7503 13.7924 46.8805 12.4013 46.8998C11.0876 46.8998 10.0636 45.7599 9.32942 44.6683C8.30544 43.1807 7.7838 41.4129 7.84176 39.6064Z" fill="#FF847A"/>
<defs>
<radialGradient id="paint0_radial_514_189" cx="0" cy="0" r="1" gradientUnits="userSpaceOnUse" gradientTransform="translate(56.5286 54) scale(55.0237 55.0237)">
<stop offset="0.5" stop-color="#FDE030"/>
<stop offset="0.92" stop-color="#F7C02B"/>
<stop offset="1" stop-color="#F4A223"/>
</radialGradient>
<radialGradient id="paint1_radial_514_189" cx="0" cy="0" r="1" gradientUnits="userSpaceOnUse" gradientTransform="translate(28.1281 56.1353) scale(18.4236 16.5437)">
<stop stop-color="#ED7770"/>
<stop offset="0.9" stop-color="#ED7770" stop-opacity="0"/>
</radialGradient>
<radialGradient id="paint2_radial_514_189" cx="0" cy="0" r="1" gradientUnits="userSpaceOnUse" gradientTransform="translate(114.026 2434.92) scale(18.7986 18.7986)">
<stop stop-color="#ED7770"/>
<stop offset="0.9" stop-color="#ED7770" stop-opacity="0"/>
</radialGradient>
</defs>
</svg>
