<svg width="113" height="108" viewBox="0 0 113 108" fill="none" xmlns="http://www.w3.org/2000/svg">
<path d="M56.0286 108C29.0769 108 0 91.0948 0 54C0 16.9052 29.0769 0 56.0286 0C71.0018 0 84.8157 4.92665 95.0555 13.9106C106.165 23.7639 112.057 37.6744 112.057 54C112.057 70.3256 106.165 84.1395 95.0555 93.9928C84.8157 102.977 70.9052 108 56.0286 108Z" fill="url(#paint0_radial_514_174)"/>
<path d="M55.449 81.734C46.6872 81.8016 38.3216 78.1211 32.4579 71.6102C32.0135 71.0982 31.9073 70.3737 32.1874 69.7555C32.4676 69.1275 33.0858 68.7218 33.7717 68.7122C34.0808 68.7122 34.3899 68.7991 34.6604 68.9537C39.3166 71.6295 47.1026 74.9526 55.449 74.9526H55.5842C63.9209 74.9526 71.7166 71.6295 76.3631 68.9537C76.6336 68.7991 76.9427 68.7122 77.2518 68.7122C77.9377 68.7218 78.5559 69.1275 78.8361 69.7555C79.1259 70.3737 79.0196 71.0982 78.5656 71.6102C72.7019 78.1211 64.3169 81.8113 55.5552 81.734" fill="#422B0D"/>
<path d="M37.0948 32.7864C33.0472 32.7864 29.3667 36.2061 29.3667 41.8862C29.3667 47.5663 33.0472 50.9764 37.0948 50.9764C41.152 50.9764 44.8229 47.5567 44.8229 41.8862C44.8229 36.2157 41.1907 32.7864 37.0948 32.7864Z" fill="#422B0D"/>
<path d="M36.7568 36.583C35.385 35.9261 33.7331 36.5057 33.0666 37.8774C32.5546 38.9497 32.7864 40.2345 33.6462 41.0653C35.0179 41.7221 36.6698 41.1425 37.3364 39.7708C37.8483 38.6985 37.6165 37.4137 36.7568 36.583Z" fill="#896024"/>
<path d="M74.1898 32.7864C70.1422 32.7864 66.4617 36.2061 66.4617 41.8862C66.4617 47.5663 70.1422 50.9764 74.1898 50.9764C78.2373 50.9764 81.9178 47.5567 81.9178 41.8862C81.9178 36.2157 78.2373 32.7864 74.1898 32.7864Z" fill="#422B0D"/>
<path d="M73.8031 36.583C72.4314 35.9261 70.7795 36.5057 70.113 37.8774C69.601 38.9497 69.8328 40.2345 70.6926 41.0653C72.0643 41.7221 73.7162 41.1425 74.3827 39.7708C74.8947 38.6985 74.6629 37.4137 73.8031 36.583Z" fill="#896024"/>
<path d="M30.3325 94.1861C24.0534 94.1861 19.2234 88.1003 19.2234 82.8838C19.2234 79.213 20.8656 74.9625 23.184 69.0699C23.4738 68.2005 23.8602 67.331 24.2466 66.365C25.5991 62.8681 27.1447 59.4484 28.8835 56.1253C29.2313 55.4588 30.0234 55.169 30.7189 55.4491C31.0087 55.594 31.2502 55.8355 31.3951 56.1253C32.8441 59.1199 34.4864 62.7908 36.1286 66.5582C40.1858 75.6387 41.345 79.3096 41.345 82.9804C41.4416 88.1003 36.515 94.1861 30.3325 94.1861Z" fill="url(#paint1_radial_514_174)"/>
<path d="M37.0949 87.2211C35.6748 89.4139 32.458 88.9985 32.458 85.3567C32.458 83.0286 32.9314 71.0694 34.931 72.7406C38.2154 75.4647 39.1428 84.1202 37.0949 87.2211Z" fill="#81D4FA"/>
<path d="M102.291 21.8997C107.44 30.2074 110.125 40.0993 110.125 51.1022C110.125 67.4277 104.233 81.2417 93.1234 91.095C82.8837 100.079 68.9732 105.102 54.0966 105.102C36.6504 105.102 18.3542 98.002 7.5542 82.9419C17.9485 100.002 37.5005 108 56.0286 108C70.9052 108 84.8157 102.977 95.0554 93.993C106.165 84.1397 112.057 70.3258 112.057 54.0002C112.057 41.6932 108.705 30.758 102.291 21.8997Z" fill="#EB8F00"/>
<defs>
<radialGradient id="paint0_radial_514_174" cx="0" cy="0" r="1" gradientUnits="userSpaceOnUse" gradientTransform="translate(56.0286 54) scale(55.0237 55.0237)">
<stop offset="0.5" stop-color="#FDE030"/>
<stop offset="0.92" stop-color="#F7C02B"/>
<stop offset="1" stop-color="#F4A223"/>
</radialGradient>
<radialGradient id="paint1_radial_514_174" cx="0" cy="0" r="1" gradientUnits="userSpaceOnUse" gradientTransform="translate(31.1246 60.2787) scale(25.522 39.3039)">
<stop offset="0.46" stop-color="#29B6F6"/>
<stop offset="1" stop-color="#1E88E5"/>
</radialGradient>
</defs>
</svg>
